<?xml version="1.0" encoding="UTF-8"?>
<!-- Generated by Pixelmator Pro 3.7 -->
<svg width="46" height="46" viewBox="0 0 46 46" xmlns="http://www.w3.org/2000/svg">
    <path id="Trac" fill="none" stroke="#b7410e" stroke-width="2" stroke-linecap="round" stroke-linejoin="round" d="M 23 5.75 L 9.58333 5.75 C 8.56667 5.75 7.59165 6.15387 6.87276 6.872761 C 6.15387 7.591652 5.75 8.566669 5.75 9.583328 L 5.75 36.416698 C 5.75 37.4333 6.15387 38.408401 6.87276 39.127201 C 7.59165 39.8461 8.56667 40.25 9.58333 40.25 L 36.416698 40.25 C 37.4333 40.25 38.408401 39.8461 39.127201 39.127201 C 39.8461 38.408401 40.25 37.4333 40.25 36.416698 L 40.25 23"/>
    <path id="path1" fill="none" stroke="#b7410e" stroke-width="2" stroke-linecap="round" stroke-linejoin="round" d="M 35.2188 5.0312 C 35.9813 4.2687 37.0154 3.840328 38.0938 3.840328 C 39.1721 3.840328 40.206299 4.2687 40.9688 5.0312 C 41.7313 5.79369 42.159599 6.827858 42.159599 7.9062 C 42.159599 8.984531 41.7313 10.0187 40.9688 10.7812 L 23.693899 28.058001 C 23.238701 28.5128 22.6765 28.8456 22.058901 29.0259 L 16.552299 30.6359 C 16.3874 30.684 16.212601 30.686899 16.0462 30.6443 C 15.8798 30.6017 15.7279 30.5151 15.6064 30.3936 C 15.4849 30.2721 15.3983 30.120199 15.3557 29.9538 C 15.313 29.787399 15.3159 29.612499 15.364 29.447599 L 16.974001 23.941 C 17.155199 23.323999 17.488701 22.7624 17.943899 22.308001 L 35.2188 5.0312 Z"/>
</svg>
