<?xml version="1.0" encoding="UTF-8"?>
<!-- Generated by Pixelmator Pro 3.7 -->
<svg width="46" height="46" viewBox="0 0 46 46" xmlns="http://www.w3.org/2000/svg">
    <path id="Trac" fill="#b7410e" stroke="none" d="M 38.992199 32.8829 L 35.834202 32.8829 C 35.618599 32.8829 35.416401 32.9772 35.2817 33.143398 C 34.967201 33.525299 34.630299 33.8936 34.275398 34.243999 C 32.824001 35.696999 31.1047 36.854801 29.2127 37.653599 C 27.2526 38.481499 25.1458 38.9062 23.018 38.902401 C 20.866199 38.902401 18.7819 38.480099 16.823299 37.653599 C 14.9313 36.854801 13.212 35.696999 11.7606 34.243999 C 10.3065 32.796001 9.14711 31.0797 8.34651 29.1903 C 7.51545 27.231701 7.09768 25.1518 7.09768 23.000099 C 7.09768 20.848301 7.51994 18.7684 8.34651 16.809799 C 9.14612 14.9186 10.2961 13.216099 11.7606 11.7561 C 13.225 10.2962 14.9276 9.14616 16.823299 8.34655 C 18.7819 7.519989 20.866199 7.097721 23.018 7.097721 C 25.1698 7.097721 27.254101 7.515499 29.2127 8.34655 C 31.1084 9.14616 32.811001 10.2962 34.275398 11.7561 C 34.630299 12.111 34.9627 12.479401 35.2817 12.856701 C 35.416401 13.0229 35.6231 13.117302 35.834202 13.117302 L 38.992199 13.117302 C 39.2752 13.117302 39.450401 12.802799 39.293201 12.564701 C 35.847698 7.21003 29.819201 3.665691 22.968599 3.683659 C 12.2053 3.710609 3.5758 12.447899 3.68362 23.197701 C 3.79143 33.776798 12.4074 42.316502 23.018 42.316502 C 29.850599 42.316502 35.8522 38.7766 39.293201 33.435398 C 39.4459 33.1973 39.2752 32.8829 38.992199 32.8829 Z M 42.985802 22.7171 L 36.611301 17.685801 C 36.373299 17.497101 36.027401 17.667801 36.027401 17.9688 L 36.027401 21.3829 L 21.9219 21.3829 C 21.724199 21.3829 21.5625 21.5446 21.5625 21.7423 L 21.5625 24.2579 C 21.5625 24.4555 21.724199 24.6173 21.9219 24.6173 L 36.027401 24.6173 L 36.027401 28.0313 C 36.027401 28.3323 36.3778 28.503 36.611301 28.314301 L 42.985802 23.2831 C 43.028702 23.2495 43.063499 23.206499 43.087299 23.157499 C 43.111198 23.1084 43.123699 23.0546 43.123699 23.000099 C 43.123699 22.945499 43.111198 22.891701 43.087299 22.842699 C 43.063499 22.7936 43.028702 22.7507 42.985802 22.7171 Z"/>
</svg>
