<svg width="72" height="73" viewBox="0 0 72 73" fill="none" xmlns="http://www.w3.org/2000/svg">
<path d="M67.5 32H40.5V5C40.5 3.80653 40.0259 2.66193 39.182 1.81802C38.3381 0.974107 37.1935 0.5 36 0.5C34.8065 0.5 33.6619 0.974107 32.818 1.81802C31.9741 2.66193 31.5 3.80653 31.5 5V32H4.5C3.30653 32 2.16193 32.4741 1.31802 33.318C0.474107 34.1619 0 35.3065 0 36.5C0 37.6935 0.474107 38.8381 1.31802 39.682C2.16193 40.5259 3.30653 41 4.5 41H31.5V68C31.5 69.1935 31.9741 70.3381 32.818 71.182C33.6619 72.0259 34.8065 72.5 36 72.5C37.1935 72.5 38.3381 72.0259 39.182 71.182C40.0259 70.3381 40.5 69.1935 40.5 68V41H67.5C68.6935 41 69.8381 40.5259 70.682 39.682C71.5259 38.8381 72 37.6935 72 36.5C72 35.3065 71.5259 34.1619 70.682 33.318C69.8381 32.4741 68.6935 32 67.5 32Z" fill="#231C07"/>
</svg>
